<svg width="13" height="16" viewBox="0 0 13 16" fill="none" xmlns="http://www.w3.org/2000/svg">
<path d="M8.85352 1.47461C9.11774 3.30551 9.8497 4.54565 10.5273 5.62988C11.3519 6.94912 11.9999 7.92234 12 9.59961C12 12.9534 9.29663 15 6.5 15C3.70338 15 1 12.9534 1 9.59961C1.00008 7.8235 1.53448 6.64805 2.19824 5.83105C2.49149 5.47013 2.82012 5.16838 3.15918 4.91113C3.24821 5.59685 3.39355 6.09157 3.57715 6.45312C3.73948 6.7727 3.94739 7.02017 4.19922 7.18555C4.32406 7.26749 4.44985 7.32283 4.56934 7.35645C4.62822 7.37301 4.68391 7.38385 4.73535 7.39062C4.76108 7.394 4.7863 7.39598 4.80957 7.39746C4.82097 7.39818 4.83202 7.39907 4.84277 7.39941C4.84825 7.39959 4.85407 7.39933 4.85938 7.39941C4.862 7.39945 4.8646 7.40037 4.86719 7.40039C4.86846 7.4004 4.87041 7.40039 4.87109 7.40039C4.87303 7.4004 4.875 7.4 4.875 6.40039V7.40039H5.69238L5.85547 6.59863C6.24252 4.69343 6.80318 3.46326 7.47949 2.63086C7.87207 2.14769 8.32522 1.77395 8.85352 1.47461Z" stroke="#959595" stroke-width="2"/>
</svg>
