<svg width="19" height="19" viewBox="0 0 19 19" fill="none" xmlns="http://www.w3.org/2000/svg">
<mask id="path-1-inside-1_29361_13675" fill="white">
<path d="M17.416 6.22119V12.7798L12.7793 17.4165H6.2207L1.58301 12.7798V6.22119L6.2207 1.5835H12.7793L17.416 6.22119Z"/>
</mask>
<path d="M17.416 6.22119H19.416V5.39289L18.8304 4.80713L17.416 6.22119ZM17.416 12.7798L18.8302 14.194L19.416 13.6082V12.7798H17.416ZM12.7793 17.4165V19.4165H13.6077L14.1935 18.8307L12.7793 17.4165ZM6.2207 17.4165L4.80664 18.8309L5.3924 19.4165H6.2207V17.4165ZM1.58301 12.7798H-0.416992V13.6083L0.168943 14.1941L1.58301 12.7798ZM1.58301 6.22119L0.168794 4.80698L-0.416992 5.39276V6.22119H1.58301ZM6.2207 1.5835V-0.416504H5.39228L4.80649 0.169283L6.2207 1.5835ZM12.7793 1.5835L14.1937 0.169431L13.6078 -0.416504H12.7793V1.5835ZM17.416 6.22119H15.416V12.7798H17.416H19.416V6.22119H17.416ZM17.416 12.7798L16.0018 11.3656L11.3651 16.0023L12.7793 17.4165L14.1935 18.8307L18.8302 14.194L17.416 12.7798ZM12.7793 17.4165V15.4165H6.2207V17.4165V19.4165H12.7793V17.4165ZM6.2207 17.4165L7.63477 16.0021L2.99707 11.3654L1.58301 12.7798L0.168943 14.1941L4.80664 18.8309L6.2207 17.4165ZM1.58301 12.7798H3.58301V6.22119H1.58301H-0.416992V12.7798H1.58301ZM1.58301 6.22119L2.99722 7.63541L7.63492 2.99771L6.2207 1.5835L4.80649 0.169283L0.168794 4.80698L1.58301 6.22119ZM6.2207 1.5835V3.5835H12.7793V1.5835V-0.416504H6.2207V1.5835ZM12.7793 1.5835L11.3649 2.99756L16.0017 7.63526L17.416 6.22119L18.8304 4.80713L14.1937 0.169431L12.7793 1.5835Z" fill="black" fill-opacity="0.3" mask="url(#path-1-inside-1_29361_13675)"/>
<path d="M6.33301 9.5H12.6663" stroke="#959595" stroke-width="2"/>
</svg>
