<svg width="60" height="60" viewBox="0 0 60 60" fill="none" xmlns="http://www.w3.org/2000/svg">
<path d="M60 10.0263V49.9737C60 55.5104 55.5128 60 49.9739 60H10.0261C4.48836 60 0 55.5127 0 49.9737V10.0263C0 4.48965 4.48956 0 10.0261 0H49.9727C55.5116 0 59.9988 4.48726 59.9988 10.0263H60ZM49.0872 14.078C49.0872 12.3298 47.6693 10.913 45.9223 10.913H14.0753C12.3271 10.913 10.9104 12.3298 10.9104 14.078V45.9304C10.9104 47.6786 12.3271 49.0954 14.0753 49.0954H45.9247C47.6729 49.0954 49.0896 47.6774 49.0896 45.9304V14.078H49.0872ZM21.816 23.6448C21.816 22.6361 22.6285 21.8188 23.6312 21.8188H36.3628C37.3667 21.8188 38.178 22.6373 38.178 23.6448V36.3575C38.178 37.3663 37.3703 38.1836 36.3628 38.1836H23.6312C22.6273 38.1836 21.816 37.3651 21.816 36.3575V23.6448Z" fill="black"/>
</svg>
